<svg width="49" height="48" viewBox="0 0 49 48" fill="none" xmlns="http://www.w3.org/2000/svg">
<path d="M32.1934 10.0864C32.3887 10.0867 32.5806 10.1377 32.75 10.2349C32.9195 10.3322 33.0614 10.4724 33.1602 10.6411L40.6006 23.4458C40.6981 23.6139 40.7499 23.8052 40.75 23.9995C40.75 24.1939 40.6981 24.385 40.6006 24.5532L39.8994 25.7593C39.1261 25.5912 38.3237 25.5005 37.5 25.5005C31.2868 25.5005 26.25 30.5373 26.25 36.7505C26.25 37.1432 26.2703 37.5312 26.3096 37.9136H17.3066C17.1113 37.9135 16.9195 37.8622 16.75 37.7651C16.5804 37.668 16.4388 37.5284 16.3398 37.3599L8.89941 24.5532C8.80187 24.385 8.75 24.1939 8.75 23.9995C8.75008 23.8052 8.80187 23.6139 8.89941 23.4458L16.3428 10.6411C16.4407 10.4723 16.5818 10.3322 16.751 10.2349C16.92 10.1376 17.1116 10.0863 17.3066 10.0864H32.1934Z" fill="#003366"/>
<path d="M16.1403 22.6377L16.1879 23.4917C16.1959 23.6347 16.2594 23.7618 16.3548 23.8532C16.4501 23.9445 16.5812 24.0001 16.7242 24.0001C17.0102 24.0001 17.2485 23.7777 17.2644 23.4917L17.3081 22.741C17.1889 22.7608 17.0658 22.7688 16.9427 22.7688C16.6646 22.7688 16.3945 22.7251 16.1403 22.6377ZM15.9655 19.5791C16.2634 19.448 16.5971 19.3765 16.9427 19.3765C17.1333 19.3765 17.316 19.3964 17.4988 19.4401L17.5266 18.9197H18.4084C18.5871 18.9197 18.7341 18.7966 18.7341 18.6417C18.7341 18.4867 18.5871 18.3636 18.4084 18.3636H17.5583L17.5703 18.1769V18.1292C17.5703 17.6685 17.1969 17.2871 16.7282 17.2871C16.2435 17.2832 15.8582 17.6923 15.886 18.1769L15.898 18.3636H15.0757C14.897 18.3636 14.75 18.4867 14.75 18.6417C14.75 18.7966 14.897 18.9197 15.0757 18.9197H15.9297L15.9655 19.5791ZM32.18 22.741L32.2237 23.4917C32.2396 23.7777 32.4779 24.0001 32.7639 24.0001C32.9069 24.0001 33.038 23.9445 33.1333 23.8532C33.2287 23.7618 33.2922 23.6347 33.3001 23.4917L33.3478 22.6377C33.0976 22.7251 32.8235 22.7727 32.5454 22.7727C32.4223 22.7688 32.2992 22.7608 32.18 22.741ZM34.464 18.3636H33.5941L33.606 18.1769C33.6338 17.6923 33.2485 17.2871 32.7639 17.2871C32.2952 17.2871 31.9218 17.6685 31.9218 18.1292V18.1769L31.9337 18.3636H31.0996C30.9089 18.3636 30.754 18.4867 30.754 18.6417C30.754 18.7966 30.9089 18.9197 31.0996 18.9197H31.9655L31.9933 19.4401C32.172 19.4003 32.3587 19.3765 32.5494 19.3765C32.895 19.3765 33.2287 19.448 33.5266 19.5791L33.5663 18.9157H34.4719C34.6269 18.9157 34.75 18.7926 34.75 18.6377C34.75 18.4828 34.6149 18.3636 34.464 18.3636Z" fill="white"/>
<path d="M33.4865 20.1907C33.2283 20.0318 32.9026 19.9325 32.5451 19.9325C32.3623 19.9325 32.1836 19.9563 32.0247 20.004C31.9492 20.0239 31.8777 20.0517 31.8102 20.0795C31.6712 20.1391 31.1945 20.1986 30.5947 20.2463C29.7764 20.3178 28.9899 19.9206 28.549 19.2294C27.8618 18.153 26.416 17.4102 24.7437 17.4102C23.0714 17.4102 21.6255 18.153 20.9383 19.2294C20.4974 19.9206 19.7109 20.3178 18.8926 20.2463C18.2928 20.1947 17.8162 20.1391 17.6771 20.0795C17.6096 20.0477 17.5341 20.0239 17.4626 20.004C17.2998 19.9563 17.125 19.9325 16.9423 19.9325C16.5848 19.9325 16.2551 20.0278 16.0009 20.1907C15.6632 20.3972 15.4487 20.719 15.4487 21.0725C15.4487 21.4658 15.7069 21.8113 16.1041 22.0139C16.3425 22.1371 16.6324 22.2086 16.9423 22.2086C17.0813 22.2086 17.2124 22.1967 17.3395 22.1688C17.4587 22.141 17.5739 22.1053 17.6811 22.0616C17.8678 21.9822 18.6742 21.9027 19.56 21.8431C20.2193 21.7994 20.8628 22.0537 21.3196 22.5343C21.9155 23.1619 22.8013 23.6227 23.8301 23.7935H25.6573C26.1697 23.7061 26.6503 23.5472 27.0753 23.3367C27.5004 23.1222 27.8698 22.8521 28.1677 22.5343C28.6245 22.0537 29.264 21.7994 29.9274 21.8431C30.8132 21.9067 31.6195 21.9822 31.8062 22.0616C31.9135 22.1093 32.0247 22.145 32.1478 22.1688C32.275 22.1967 32.406 22.2086 32.5451 22.2086C32.8549 22.2086 33.1449 22.1371 33.3832 22.0139C33.7804 21.8074 34.0386 21.4618 34.0386 21.0725C34.0386 20.719 33.8241 20.3972 33.4865 20.1907ZM24.7437 21.9782C24.0048 21.9782 23.409 21.3824 23.409 20.6435C23.409 19.9047 24.0048 19.3089 24.7437 19.3089C25.4825 19.3089 26.0783 19.9047 26.0783 20.6435C26.0783 21.3784 25.4825 21.9782 24.7437 21.9782Z" fill="white"/>
<rect x="27.75" y="27.1504" width="19.5" height="19.5" rx="9.75" fill="#2759D4"/>
<g clip-path="url(#clip0_6714_9159)">
<path d="M43.396 39.6646C42.948 39.6146 42.5189 39.4458 42.1897 39.1875C41.896 38.9562 41.4772 38.9521 41.1855 39.1875C40.396 39.8208 38.9522 39.8208 38.1501 39.1562C37.8689 38.9229 37.4626 38.9666 37.1772 39.1937C36.3855 39.8208 34.9501 39.8187 34.1522 39.1583C33.871 38.925 33.4585 38.9729 33.171 39.2C32.848 39.4541 32.421 39.6187 31.9689 39.6666C31.8043 39.6833 31.6855 39.8291 31.6855 39.9937V40.6646C31.6855 40.8541 31.8439 41.0146 32.0335 40.9979C32.6335 40.9458 33.2022 40.7604 33.6876 40.4583C34.8647 41.1791 36.5418 41.1687 37.6876 40.4583C38.8647 41.1791 40.5418 41.1687 41.6876 40.4583C42.173 40.7541 42.748 40.9437 43.3355 40.9958C43.5251 41.0125 43.6835 40.8521 43.6835 40.6625V40.0041C43.6855 39.8375 43.5647 39.6833 43.396 39.6646ZM43.396 36.6646C42.948 36.6146 42.5189 36.4458 42.1897 36.1875C41.896 35.9562 41.4772 35.9521 41.1855 36.1875C40.396 36.8208 38.9522 36.8208 38.1501 36.1562C37.8689 35.9229 37.4626 35.9666 37.1772 36.1937C36.3855 36.8208 34.9501 36.8187 34.1522 36.1583C33.871 35.925 33.4585 35.9729 33.171 36.2C32.848 36.4541 32.421 36.6187 31.9689 36.6666C31.8043 36.6833 31.6855 36.8291 31.6855 36.9937V37.6646C31.6855 37.8541 31.8439 38.0146 32.0335 37.9979C32.6335 37.9458 33.2022 37.7604 33.6876 37.4583C34.8647 38.1791 36.5418 38.1687 37.6876 37.4583C38.8647 38.1791 40.5418 38.1687 41.6876 37.4583C42.173 37.7541 42.748 37.9437 43.3355 37.9958C43.5251 38.0125 43.6835 37.8521 43.6835 37.6625V37.0041C43.6855 36.8375 43.5647 36.6833 43.396 36.6646ZM43.396 33.6646C42.948 33.6125 42.5189 33.4458 42.1897 33.1875C41.896 32.9562 41.4772 32.9521 41.1855 33.1875C40.396 33.8208 38.9522 33.8208 38.1501 33.1562C37.8689 32.9229 37.4626 32.9666 37.1772 33.1937C36.3855 33.8208 34.9501 33.8187 34.1522 33.1583C33.871 32.925 33.4585 32.9729 33.171 33.2C32.848 33.4541 32.421 33.6187 31.9689 33.6666C31.8043 33.6833 31.6855 33.8291 31.6855 33.9937V34.6646C31.6855 34.8541 31.8439 35.0146 32.0335 34.9979C32.6335 34.9458 33.2022 34.7604 33.6876 34.4583C34.8647 35.1791 36.5418 35.1687 37.6876 34.4583C38.8647 35.1791 40.5418 35.1687 41.6876 34.4583C42.173 34.7541 42.748 34.9437 43.3355 34.9958C43.5251 35.0125 43.6835 34.8521 43.6835 34.6625V34.0041C43.6855 33.8375 43.5647 33.6833 43.396 33.6646Z" fill="white"/>
</g>
<defs>
<clipPath id="clip0_6714_9159">
<rect width="12" height="10.6667" fill="white" transform="translate(31.6855 31.6665)"/>
</clipPath>
</defs>
</svg>
