<svg width="25" height="24" viewBox="0 0 25 24" fill="none" xmlns="http://www.w3.org/2000/svg">
<g id="PlusCircle">
<path id="Vector" d="M12.4785 2.25C10.5502 2.25 8.66509 2.82183 7.06171 3.89317C5.45833 4.96451 4.20865 6.48726 3.47069 8.26884C2.73274 10.0504 2.53966 12.0108 2.91586 13.9021C3.29207 15.7934 4.22067 17.5307 5.58423 18.8943C6.94779 20.2579 8.68507 21.1865 10.5764 21.5627C12.4677 21.9389 14.4281 21.7458 16.2097 21.0078C17.9913 20.2699 19.514 19.0202 20.5853 17.4168C21.6567 15.8134 22.2285 13.9284 22.2285 12C22.2258 9.41498 21.1977 6.93661 19.3698 5.10872C17.5419 3.28084 15.0635 2.25273 12.4785 2.25ZM12.4785 20.25C10.8468 20.25 9.25177 19.7661 7.89507 18.8596C6.53836 17.9531 5.48094 16.6646 4.85651 15.1571C4.23209 13.6496 4.06871 11.9908 4.38704 10.3905C4.70537 8.79016 5.49111 7.32015 6.64489 6.16637C7.79867 5.01259 9.26868 4.22685 10.869 3.90852C12.4694 3.59019 14.1282 3.75357 15.6357 4.37799C17.1431 5.00242 18.4316 6.05984 19.3381 7.41655C20.2447 8.77325 20.7285 10.3683 20.7285 12C20.726 14.1873 19.856 16.2843 18.3094 17.8309C16.7628 19.3775 14.6658 20.2475 12.4785 20.25ZM16.9785 12C16.9785 12.1989 16.8995 12.3897 16.7589 12.5303C16.6182 12.671 16.4274 12.75 16.2285 12.75H13.2285V15.75C13.2285 15.9489 13.1495 16.1397 13.0089 16.2803C12.8682 16.421 12.6774 16.5 12.4785 16.5C12.2796 16.5 12.0888 16.421 11.9482 16.2803C11.8075 16.1397 11.7285 15.9489 11.7285 15.75V12.75H8.72852C8.52961 12.75 8.33884 12.671 8.19819 12.5303C8.05754 12.3897 7.97852 12.1989 7.97852 12C7.97852 11.8011 8.05754 11.6103 8.19819 11.4697C8.33884 11.329 8.52961 11.25 8.72852 11.25H11.7285V8.25C11.7285 8.05109 11.8075 7.86032 11.9482 7.71967C12.0888 7.57902 12.2796 7.5 12.4785 7.5C12.6774 7.5 12.8682 7.57902 13.0089 7.71967C13.1495 7.86032 13.2285 8.05109 13.2285 8.25V11.25H16.2285C16.4274 11.25 16.6182 11.329 16.7589 11.4697C16.8995 11.6103 16.9785 11.8011 16.9785 12Z" fill="#003366"/>
</g>
</svg>
