<svg xmlns="http://www.w3.org/2000/svg" width="109" height="22" viewBox="0 0 109 22" fill="none">
  <g clip-path="url(#clip0_1410_19293)">
    <path d="M95.1401 11.0959L87.4333 1.52588e-05H94.0533L98.0829 5.81968L101.951 1.52588e-05H108.667L100.705 11.0959V21.3289H95.1401V11.0959Z" fill="#F79D23" />
    <path d="M36.4133 1.52588e-05H21.2499V4.69988H36.4133V1.52588e-05Z" fill="#F79D23" />
    <path d="M36.4133 8.34747H21.2499V13.049H36.4133V8.34747Z" fill="#F79D23" />
    <path d="M36.4133 16.6949H21.2499V21.3948H36.4133V16.6949Z" fill="#F79D23" />
    <path d="M78.9228 17.2976C78.7367 17.2795 78.712 17.6039 78.6643 17.7488C78.2592 18.9378 78.1258 20.1712 78.4156 21.3289H79.374C78.8849 19.9769 78.6939 18.5327 78.9228 17.2976Z" fill="#F79D23" />
    <path d="M84.3901 1.52588e-05H78.3465L70.1604 21.3289H77.2332C76.7623 20.3705 76.7244 19.1749 77.1097 18.0749C76.3012 18.4998 76.2106 19.3841 75.6869 20.0181C75.4416 18.0222 76.1365 16.5912 77.6285 15.3561C76.5367 15.3956 75.6935 16.0313 75.1023 16.909C75.1221 15.3824 76.2402 14.1013 77.6515 13.6303C77.999 13.5134 78.633 13.6929 78.5358 13.2828C77.085 12.9304 75.6803 12.8892 74.5836 14.0584C74.4864 14.0782 74.5013 13.9349 74.521 13.8674C74.8471 12.8053 76.1842 12.0066 77.2382 11.8551C77.1246 11.3824 76.6947 11.2128 76.4757 10.7419C76.3061 10.3763 76.2073 9.93 76.204 9.52655L76.9862 10.4915C77.9397 10.7155 78.6807 11.501 79.4827 11.8814C80.973 12.5879 82.8734 12.0313 84.1035 13.5414C83.3427 11.5356 80.9434 11.8139 79.3543 10.9724C77.4737 9.97611 76.7194 7.78592 77.2415 5.77028L77.7355 7.67064C78.992 10.21 81.9133 10.0206 84.1052 11.2095L84.0064 10.727L83.2653 9.78344C83.8746 9.95141 84.6107 10.2594 85.0768 10.6925C85.3962 10.9889 86.0665 12.3804 86.437 12.1153L86.2427 11.2112C87.6326 12.2338 86.6659 13.8542 88.3423 14.6924C88.866 14.9543 89.0307 14.5607 89.3518 15.4862C89.6169 16.2519 89.5066 16.9436 89.225 17.6863C88.8067 16.5928 88.1892 16.6867 87.43 16.2437C87.0397 16.0164 86.7548 15.4961 86.3547 15.2474C85.8129 14.9115 85.1245 14.8011 84.4971 14.839C84.9994 15.2606 85.6252 15.4055 86.1702 15.8205C86.8059 16.3046 87.1533 17.0588 88.12 17.0457C88.1974 17.6797 87.6276 18.4257 86.959 18.3367C87.0018 14.8308 82.5111 16.9502 81.388 14.452C81.8705 14.5097 82.1472 14.7698 82.656 14.6282C84.148 14.2132 82.3333 13.1116 81.0636 13.9333C79.491 14.951 80.0854 17.734 80.9994 19.0498C81.528 19.8122 82.4568 20.5352 83.1451 21.3322H84.5844C84.5119 21.2186 84.4395 21.1066 84.3687 20.9897C84.2946 20.8678 84.1496 20.8991 84.3654 20.7328C84.8149 20.5829 86.1982 20.1795 86.5045 20.5385C86.6116 20.7937 86.6758 21.0621 86.7021 21.3322H92.4181L84.3901 1.52588e-05ZM80.8676 14.8374L81.3831 16.1301L80.7227 16.0543L80.8676 14.8374ZM81.719 18.5986C81.2118 18.0535 80.8726 17.4623 80.7359 16.7163L81.7503 16.5434L83.0694 18.0733L81.719 18.5986ZM83.9109 20.3623C83.6474 20.191 81.9726 19.1107 82.162 18.8538C82.5918 18.8818 82.9656 18.4257 83.2917 18.3565C83.9224 18.2215 85.388 19.3149 85.9166 19.7579L83.9092 20.3623H83.9109Z" fill="#F79D23" />
    <path d="M86.3053 13.9284C86.0862 13.1824 85.2744 12.8662 84.6239 12.634C84.7771 13.3536 85.5412 14.0552 86.3053 13.9284Z" fill="#F79D23" />
    <path d="M9.30588 16.6472L19.3462 0.0197754H9.67311L6.83409 4.71964H10.1046L1.52588e-05 21.3487H6.45039H9.67311L12.5302 16.6472H9.30753H9.30588Z" fill="#ED0503" />
    <path d="M70.3135 2.00082C68.6833 0.434745 66.7664 0.0839844 64.9122 0.0839844H61.6384V4.55824H63.5058C64.209 4.55824 65.2316 4.65375 65.8706 5.32563C66.4453 5.90035 66.5095 6.66775 66.5095 7.24247C66.5095 7.75461 66.4782 8.61587 65.8064 9.19224C65.1345 9.79989 64.0476 9.86247 63.4729 9.86247H61.6367V14.3367H65.1032C66.7648 14.3367 68.7458 14.1128 70.4091 12.4825C72.0706 10.8522 72.2946 8.87112 72.2946 7.1766C72.2946 5.38657 71.9751 3.59653 70.3135 1.99917V2.00082Z" fill="#F79D23" />
    <path d="M60.8331 0.0708008H60.5153V0.0823281H60.8331V0.0708008Z" fill="#F79D23" />
    <path d="M43.9851 0.0839844H38.4553V21.3997H43.9851V8.36062L53.7965 20.9106V12.6323L43.9851 0.0839844Z" fill="#F79D23" />
    <path d="M57.673 0.0708008L57.6648 0.0839749L55.2852 3.36927L55.0003 3.76449L54.9855 3.78425L54.7944 4.04938L54.6018 4.31451L52.8233 6.77148H54.6018H54.7944H54.9855V13.1231V21.3997H60.5153V9.86246V4.55823V0.0839749V0.0708008H57.673Z" fill="#F79D23" />
    <path d="M54.1802 3.7645V3.78426L54.195 3.7645H54.1802Z" fill="#F79D23" />
    <path d="M0.130116 0.0197754L0.146583 4.71964H5.66489L8.57966 0.0197754H0.130116Z" fill="#F79D23" />
    <path d="M19.3067 21.3487L19.2902 16.6471H13.7736L10.8571 21.3487H19.3067Z" fill="#F79D23" />
  </g>
  <defs>
    <clipPath id="clip0_1410_19293">
      <rect width="108.667" height="21.3997" fill="white" />
    </clipPath>
  </defs>
</svg>