<svg width="57" height="57" viewBox="0 0 57 57" fill="none" xmlns="http://www.w3.org/2000/svg">
<rect x="1.15" y="1.15" width="54.7" height="54.7" rx="11.35" fill="#003366"/>
<rect x="1.15" y="1.15" width="54.7" height="54.7" rx="11.35" stroke="#DEDFE0" stroke-width="1.3"/>
<path fill-rule="evenodd" clip-rule="evenodd" d="M28.5001 28.5C31.7661 25.642 32.6342 20.0881 29.3147 15.196C30.976 17.516 31.0722 23.209 29.6799 25.2859C24.4622 20.3495 27.687 17.3998 26.4705 12.5C28.2036 12.7445 29.8756 13.5331 31.2083 14.8658C34.4728 18.1303 34.4728 23.4229 31.2083 26.6874C30.4074 27.4883 29.4843 28.0919 28.5001 28.5Z" fill="url(#paint0_linear_6625_238)"/>
<path fill-rule="evenodd" clip-rule="evenodd" d="M28.5015 28.5C25.2355 31.358 24.3674 36.9119 27.6869 41.804C26.0256 39.4841 25.9294 33.7911 27.3217 31.7141C32.5394 36.6505 29.3146 39.6002 30.5311 44.5C28.798 44.2555 27.126 43.4669 25.7933 42.1342C22.5288 38.8697 22.5288 33.5771 25.7933 30.3126C26.5942 29.5117 27.5173 28.9081 28.5015 28.5Z" fill="url(#paint1_linear_6625_238)"/>
<path fill-rule="evenodd" clip-rule="evenodd" d="M28.5 28.4999C31.358 31.766 36.9119 32.6341 41.804 29.3145C39.484 30.9758 33.7911 31.0721 31.7141 29.6798C36.6505 24.4621 39.6002 27.6869 44.5 26.4703C44.2555 28.2035 43.4669 29.8754 42.1342 31.2081C38.8697 34.4726 33.5771 34.4726 30.3126 31.2081C29.5117 30.4073 28.9081 29.4842 28.5 28.4999Z" fill="url(#paint2_linear_6625_238)"/>
<path fill-rule="evenodd" clip-rule="evenodd" d="M28.5 28.4999C25.642 25.2339 20.0881 24.3658 15.196 27.6853C17.516 26.0241 23.209 25.9278 25.2859 27.3201C20.3495 32.5378 17.3998 29.313 12.5 30.5296C12.7445 28.7964 13.5331 27.1245 14.8658 25.7918C18.1303 22.5273 23.4229 22.5273 26.6874 25.7918C27.4883 26.5926 28.0919 27.5157 28.5 28.4999Z" fill="url(#paint3_linear_6625_238)"/>
<path fill-rule="evenodd" clip-rule="evenodd" d="M42.5 14.5C43.7248 13.4283 44.0503 11.3455 42.8055 9.51099C43.4285 10.381 43.4646 12.5159 42.9424 13.2947C40.9858 11.4435 42.1951 10.3374 41.7389 8.5C42.3888 8.5917 43.0158 8.88743 43.5156 9.38719C44.7398 10.6114 44.7398 12.5961 43.5156 13.8203C43.2153 14.1206 42.8691 14.347 42.5 14.5Z" fill="url(#paint4_linear_6625_238)"/>
<path fill-rule="evenodd" clip-rule="evenodd" d="M42.5006 14.5C41.2758 15.5717 40.9503 17.6545 42.1951 19.489C41.5721 18.619 41.536 16.4841 42.0582 15.7053C44.0148 17.5565 42.8055 18.6626 43.2617 20.5C42.6118 20.4083 41.9848 20.1126 41.485 19.6128C40.2608 18.3886 40.2608 16.4039 41.485 15.1797C41.7853 14.8794 42.1315 14.653 42.5006 14.5Z" fill="url(#paint5_linear_6625_238)"/>
<path fill-rule="evenodd" clip-rule="evenodd" d="M42.5 14.5C43.5717 15.7248 45.6545 16.0503 47.489 14.8055C46.619 15.4285 44.4841 15.4646 43.7053 14.9424C45.5565 12.9858 46.6626 14.1951 48.5 13.7389C48.4083 14.3888 48.1126 15.0158 47.6128 15.5156C46.3886 16.7398 44.4039 16.7398 43.1797 15.5156C42.8794 15.2153 42.653 14.8691 42.5 14.5Z" fill="url(#paint6_linear_6625_238)"/>
<path fill-rule="evenodd" clip-rule="evenodd" d="M42.5 14.5C41.4283 13.2752 39.3455 12.9497 37.511 14.1945C38.381 13.5715 40.5159 13.5354 41.2947 14.0575C39.4435 16.0142 38.3374 14.8049 36.5 15.2611C36.5917 14.6112 36.8874 13.9842 37.3872 13.4844C38.6114 12.2602 40.5961 12.2602 41.8203 13.4844C42.1206 13.7847 42.347 14.1309 42.5 14.5Z" fill="url(#paint7_linear_6625_238)"/>
<defs>
<linearGradient id="paint0_linear_6625_238" x1="30.0635" y1="12.5" x2="30.0635" y2="28.5" gradientUnits="userSpaceOnUse">
<stop stop-color="white"/>
<stop offset="1" stop-color="white" stop-opacity="0"/>
</linearGradient>
<linearGradient id="paint1_linear_6625_238" x1="26.9381" y1="28.5" x2="26.9381" y2="44.5" gradientUnits="userSpaceOnUse">
<stop stop-color="white" stop-opacity="0"/>
<stop offset="1" stop-color="white"/>
</linearGradient>
<linearGradient id="paint2_linear_6625_238" x1="44.5" y1="30.0634" x2="28.5" y2="30.0634" gradientUnits="userSpaceOnUse">
<stop stop-color="white"/>
<stop offset="1" stop-color="white" stop-opacity="0"/>
</linearGradient>
<linearGradient id="paint3_linear_6625_238" x1="28.5" y1="26.9365" x2="12.5" y2="26.9365" gradientUnits="userSpaceOnUse">
<stop stop-color="white" stop-opacity="0"/>
<stop offset="1" stop-color="white"/>
</linearGradient>
<linearGradient id="paint4_linear_6625_238" x1="43.0863" y1="8.5" x2="43.0863" y2="14.5" gradientUnits="userSpaceOnUse">
<stop stop-color="white"/>
<stop offset="1" stop-color="white" stop-opacity="0"/>
</linearGradient>
<linearGradient id="paint5_linear_6625_238" x1="41.9143" y1="14.5" x2="41.9143" y2="20.5" gradientUnits="userSpaceOnUse">
<stop stop-color="white" stop-opacity="0"/>
<stop offset="1" stop-color="white"/>
</linearGradient>
<linearGradient id="paint6_linear_6625_238" x1="48.5" y1="15.0863" x2="42.5" y2="15.0863" gradientUnits="userSpaceOnUse">
<stop stop-color="white"/>
<stop offset="1" stop-color="white" stop-opacity="0"/>
</linearGradient>
<linearGradient id="paint7_linear_6625_238" x1="42.5" y1="13.9137" x2="36.5" y2="13.9137" gradientUnits="userSpaceOnUse">
<stop stop-color="white" stop-opacity="0"/>
<stop offset="1" stop-color="white"/>
</linearGradient>
</defs>
</svg>
